<?xml version="1.0" standalone="no"?>
<!DOCTYPE svg PUBLIC "-//W3C//DTD SVG 20010904//EN"
 "http://www.w3.org/TR/2001/REC-SVG-20010904/DTD/svg10.dtd">
<svg version="1.0" xmlns="http://www.w3.org/2000/svg"
 width="1024.000000pt" height="1024.000000pt" viewBox="0 0 1024.000000 1024.000000"
 preserveAspectRatio="xMidYMid meet">

<g transform="translate(0.000000,1024.000000) scale(0.100000,-0.100000)"
fill="#000000" stroke="none">
<path d="M5743 7886 c-132 -43 -222 -152 -223 -268 l0 -46 -47 24 c-150 75
-324 46 -433 -73 -50 -55 -90 -140 -90 -192 0 -22 -13 -40 -61 -81 -66 -58
-93 -104 -109 -191 -18 -93 15 -207 79 -275 17 -18 27 -35 24 -38 -4 -3 -27
-6 -53 -6 -77 0 -80 -8 -80 -203 0 -194 -4 -187 110 -187 l72 0 -6 -27 c-3
-16 -10 -174 -16 -353 -15 -433 -13 -422 -53 -445 -18 -10 -80 -49 -139 -87
-59 -37 -109 -68 -112 -68 -3 0 -6 56 -6 123 0 111 2 126 20 142 26 24 26 76
0 100 -41 37 -68 26 -246 -110 -93 -71 -225 -171 -294 -223 -144 -109 -180
-143 -180 -175 0 -31 35 -67 64 -67 18 0 360 239 504 353 9 7 12 -14 12 -100
l0 -110 -69 -27 c-90 -35 -154 -84 -180 -139 -20 -41 -21 -59 -21 -354 l0
-312 26 -20 c24 -19 40 -21 175 -21 l149 0 0 -90 0 -90 -265 0 -265 0 0 379
c0 494 11 479 -240 346 -80 -43 -183 -97 -230 -122 -132 -70 -120 -36 -120
-340 l0 -263 -265 0 -266 0 3 127 3 126 43 15 c58 19 145 100 169 159 13 31
23 82 26 140 5 82 3 95 -14 118 -18 22 -28 25 -79 25 -51 0 -64 -4 -104 -35
l-46 -35 0 68 c0 84 -16 112 -65 112 -49 0 -65 -28 -65 -113 l0 -69 -41 33
c-34 27 -53 34 -100 37 -43 3 -65 0 -84 -12 -24 -16 -25 -21 -25 -111 0 -70 5
-108 20 -149 31 -81 109 -147 213 -180 15 -5 17 -20 17 -131 l0 -125 -480 0
-480 0 -32 -29 -33 -29 0 -690 c0 -685 0 -691 21 -719 11 -15 32 -34 45 -40
19 -10 239 -13 969 -13 520 0 1157 0 1415 0 l471 0 198 -192 c109 -106 206
-197 216 -202 34 -16 68 8 227 160 87 83 179 169 204 192 l46 42 1399 0 c924
0 1412 4 1436 10 23 7 46 23 60 43 l23 32 3 670 c2 623 1 672 -15 705 -10 19
-30 41 -45 48 -20 9 -167 13 -615 15 l-588 2 -3 88 c-3 89 -3 89 31 127 67 74
69 153 6 225 -77 87 -215 53 -249 -62 -19 -62 -6 -108 46 -159 l44 -45 0 -89
0 -90 -195 0 -195 0 0 94 0 94 33 21 c19 11 46 44 62 73 26 46 29 64 30 133 0
64 -5 89 -22 122 -83 155 -285 153 -354 -5 -28 -63 -25 -163 5 -227 21 -46 77
-107 106 -117 8 -2 12 -34 13 -93 l2 -90 -132 -3 -133 -3 -1 53 c0 29 -2 255
-5 503 -5 447 -5 449 -27 473 -12 13 -154 125 -316 249 -204 156 -302 226
-320 226 -56 0 -81 -82 -36 -121 24 -21 25 -26 25 -148 l0 -126 -37 23 c-21
12 -86 55 -144 95 l-106 73 -12 123 c-6 68 -18 215 -26 328 -8 113 -18 238
-21 278 l-7 72 80 0 c48 0 84 5 91 12 8 8 12 63 12 179 0 162 -1 168 -22 183
-13 10 -44 16 -75 16 l-53 0 6 43 c5 36 1 53 -30 111 -50 95 -45 160 15 192
40 20 64 17 77 -10 13 -29 83 -79 136 -96 55 -18 169 -8 231 19 62 28 137 106
154 160 11 37 18 44 74 69 86 39 131 82 169 161 27 57 32 77 32 146 -1 103
-27 172 -94 247 -66 74 -137 108 -234 114 -44 2 -87 -1 -113 -10z m188 -159
c61 -32 109 -112 109 -182 0 -62 -27 -122 -69 -158 -29 -24 -52 -33 -133 -51
-22 -5 -29 -15 -38 -49 -18 -71 -31 -96 -66 -127 -33 -28 -89 -50 -129 -50
-36 1 -101 37 -131 73 -16 20 -42 40 -57 46 -87 33 -220 -24 -275 -118 -22
-38 -27 -58 -27 -116 0 -61 5 -79 38 -143 52 -100 51 -102 -32 -102 -69 0 -69
0 -76 30 -4 17 -25 46 -49 67 -74 65 -96 135 -71 220 18 59 56 97 114 113 27
7 41 18 53 43 15 30 15 36 0 59 -37 62 38 172 138 202 89 27 140 18 235 -43
27 -17 59 -31 71 -31 11 0 41 15 65 33 44 34 83 50 149 61 48 9 70 28 80 70 9
41 -8 69 -48 81 -17 5 -30 -1 -53 -25 -22 -22 -37 -29 -51 -24 -12 3 -17 11
-14 21 3 8 6 18 6 23 0 17 55 73 85 86 48 21 126 17 176 -9z m-601 -1177 l0
-60 -220 0 -220 0 0 60 0 60 220 0 220 0 0 -60z m-169 -305 c4 -55 8 -122 10
-150 l4 -50 -62 -3 -62 -3 5 133 c7 185 6 180 57 176 l42 -3 6 -100z m15 -348
c1 -1 6 -42 10 -90 l7 -87 -77 0 -76 0 0 43 c0 23 3 65 6 92 l6 50 61 -2 c33
-2 61 -4 63 -6z m16 -399 c2 -46 2 -86 0 -90 -2 -5 -39 -8 -83 -8 l-79 0 0 74
c0 107 -1 106 85 106 l73 0 4 -82z m777 -149 l201 -150 0 -470 0 -469 -272 0
-271 0 7 374 7 374 -25 28 c-23 28 -27 29 -118 29 l-93 0 -8 75 c-4 41 -12
105 -18 141 -7 36 -10 71 -8 77 4 12 163 -83 259 -153 l48 -35 1 -341 c1 -211
6 -349 12 -361 17 -31 53 -38 199 -38 l139 0 21 27 c21 26 21 34 18 323 l-3
295 -27 47 c-18 30 -49 60 -88 86 -54 36 -155 82 -180 82 -6 0 -10 44 -10 105
0 58 2 105 4 105 3 0 95 -68 205 -151z m-1091 -11 c-3 -30 -14 -40 -133 -115
-71 -46 -133 -83 -137 -83 -5 0 -8 15 -8 34 0 32 5 37 88 89 119 74 175 107
185 107 5 0 7 -15 5 -32z m-12 -110 c-2 -35 -3 -87 -4 -116 l-2 -54 -130 4
c-71 1 -130 6 -130 11 0 4 8 7 18 8 10 0 12 3 4 6 -6 2 -10 9 -6 14 3 5 0 9
-7 9 -9 0 -9 3 0 14 7 8 21 12 31 9 12 -3 20 0 20 6 0 7 -4 9 -10 6 -5 -3 -10
-4 -10 -2 0 3 21 18 48 33 26 15 58 34 72 43 22 14 24 14 15 0 -5 -8 0 -3 12
11 13 14 23 22 23 18 0 -4 11 4 25 17 13 14 26 25 29 25 2 0 3 -28 2 -62z
m337 35 c3 -5 7 -51 8 -103 l4 -95 -104 -3 -104 -3 7 32 c3 17 6 65 6 105 l0
74 89 0 c50 0 92 -3 94 -7z m-723 -233 l0 -120 -75 0 -75 0 0 68 c0 90 21 129
80 153 72 29 70 32 70 -101z m1381 89 c68 -30 91 -69 87 -151 l-3 -63 -70 0
-70 0 -3 118 c-1 64 0 117 3 117 4 0 28 -10 56 -21z m-331 -529 l0 -330 -40 0
-40 0 0 200 0 200 -29 32 -29 33 -239 3 c-294 4 -318 1 -344 -41 -17 -29 -19
-52 -19 -234 l0 -203 -60 0 -60 0 -2 168 c-4 238 -4 464 0 485 3 16 32 17 433
17 l429 0 0 -330z m-1640 -30 l0 -300 -150 0 -150 0 0 224 0 225 148 75 c81
41 148 75 150 76 1 0 2 -135 2 -300z m-1142 186 c29 -15 32 -21 32 -62 l0 -45
-28 15 c-47 24 -92 92 -92 137 0 23 0 23 28 -3 15 -14 42 -33 60 -42z m262 -1
c-11 -32 -70 -95 -90 -95 -6 0 -10 14 -10 32 0 25 10 41 53 79 56 50 68 46 47
-16z m1470 -70 l0 -106 -72 3 -73 3 -3 103 -3 102 76 0 75 0 0 -105z m1470 0
l0 -106 -72 3 -73 3 -3 103 -3 102 76 0 75 0 0 -105z m726 61 c15 -11 19 -26
19 -69 0 -65 -15 -87 -61 -87 -27 0 -36 6 -50 32 -41 80 26 172 92 124z m493
-125 c19 -12 6 -41 -19 -41 -13 0 -20 7 -20 18 0 31 14 39 39 23z m-1871 -188
l2 -163 -185 0 -185 0 0 158 c0 87 3 162 7 166 4 3 86 5 182 4 l176 -3 3 -162z
m3040 -925 l-3 -613 -1405 -1 c-773 -1 -1411 -2 -1418 -3 -8 0 -99 -85 -202
-187 l-189 -187 -186 179 c-103 99 -193 183 -201 187 -8 5 -648 9 -1422 10
l-1407 2 -3 613 -2 612 3220 0 3220 0 -2 -612z"/>
<path d="M4840 5260 c-9 -6 -10 -10 -3 -10 6 0 15 5 18 10 8 12 4 12 -15 0z"/>
<path d="M4675 5130 c-3 -6 1 -7 9 -4 18 7 21 14 7 14 -6 0 -13 -4 -16 -10z"/>
<path d="M3652 4523 l3 -78 85 0 85 0 0 75 0 75 -88 3 -88 3 3 -78z"/>
<path d="M4960 4340 l0 -70 85 0 85 0 0 70 0 70 -85 0 -85 0 0 -70z"/>
<path d="M4066 4009 c-28 -32 -26 -46 6 -58 19 -7 19 -7 -2 -34 -41 -52 8 -66
51 -14 41 50 43 70 13 106 -14 17 -29 31 -34 31 -5 0 -20 -14 -34 -31z"/>
<path d="M4427 4030 c-51 -9 -88 -38 -111 -84 -16 -32 -17 -44 -8 -74 13 -43
34 -58 117 -87 46 -16 60 -26 60 -40 0 -27 -45 -31 -102 -10 -44 17 -46 17
-66 -4 -60 -60 71 -141 181 -111 68 18 104 56 109 117 5 45 2 53 -23 81 -20
21 -49 37 -94 50 -51 14 -65 22 -65 38 0 14 8 20 34 22 19 2 44 -2 56 -8 28
-15 65 -10 79 12 31 51 -78 115 -167 98z"/>
<path d="M2130 4003 c-12 -15 -18 -33 -15 -42 4 -9 31 -81 62 -161 30 -80 62
-153 70 -162 29 -32 80 -22 74 14 0 5 4 7 10 5 7 -1 22 33 36 76 13 42 27 77
31 77 4 0 18 -30 31 -67 38 -108 48 -123 80 -123 15 0 35 8 43 18 14 17 128
327 128 350 0 6 -11 19 -25 28 -45 29 -67 9 -104 -95 -18 -50 -38 -91 -45 -91
-7 0 -26 39 -42 87 -33 100 -60 127 -91 96 -10 -10 -31 -58 -47 -106 -16 -48
-34 -87 -40 -87 -7 0 -24 39 -40 86 -40 122 -74 151 -116 97z"/>
<path d="M2890 4010 c-18 -18 -20 -33 -20 -187 0 -93 4 -173 8 -179 4 -6 17
-16 29 -22 17 -10 26 -8 45 7 22 19 23 25 26 191 3 151 1 174 -14 191 -22 24
-49 24 -74 -1z"/>
<path d="M3276 4008 c-13 -18 -16 -54 -16 -186 0 -93 4 -172 10 -183 12 -22
59 -26 78 -7 7 7 12 38 12 70 0 32 4 58 9 58 5 0 42 -30 81 -67 83 -78 98 -86
131 -69 46 23 36 48 -51 127 -44 40 -79 79 -78 86 2 7 35 37 73 66 71 53 89
83 65 113 -21 24 -42 16 -132 -50 -47 -36 -89 -62 -92 -59 -3 4 -6 26 -6 49 0
68 -51 99 -84 52z"/>
<path d="M3830 4010 c-18 -18 -20 -33 -20 -189 0 -186 6 -205 59 -199 43 5 51
37 51 214 0 143 -2 163 -18 177 -25 22 -48 21 -72 -3z"/>
<path d="M5134 4022 c-6 -4 -16 -16 -22 -28 -9 -17 0 -49 52 -186 35 -91 66
-171 70 -177 9 -14 51 -14 76 -1 12 6 28 41 45 95 14 47 29 85 34 85 5 0 16
-26 26 -57 32 -105 51 -133 91 -133 33 0 47 24 113 195 l62 159 -19 26 c-43
57 -85 25 -118 -90 -19 -65 -36 -88 -51 -68 -5 7 -24 50 -42 95 -49 123 -78
122 -128 -9 -17 -45 -34 -92 -38 -103 -4 -15 -14 1 -40 65 -47 118 -78 155
-111 132z"/>
<path d="M6061 4001 c-34 -36 -151 -296 -151 -333 0 -32 30 -53 63 -44 12 3
32 21 45 40 22 33 27 35 89 38 52 2 66 0 70 -12 12 -43 30 -65 56 -68 34 -4
57 13 57 43 0 21 -8 42 -60 160 -10 22 -28 65 -41 95 -47 114 -78 134 -128 81z
m57 -163 l10 -38 -35 0 c-29 0 -34 3 -28 18 4 9 12 30 17 45 12 33 22 26 36
-25z"/>
<path d="M6655 4011 c-171 -77 -162 -324 14 -386 60 -21 89 -19 149 11 54 27
72 55 51 80 -25 31 -47 35 -94 19 -60 -20 -68 -19 -103 10 -72 61 -28 185 66
185 18 0 46 -7 63 -15 37 -19 69 -6 69 30 0 69 -125 107 -215 66z"/>
<path d="M7127 4012 c-14 -16 -17 -44 -17 -188 0 -174 4 -194 41 -207 9 -3 26
1 38 9 17 13 21 25 21 75 0 32 4 59 10 59 5 0 44 -31 87 -70 83 -74 122 -88
143 -51 19 36 23 30 -83 128 -31 29 -57 57 -57 62 0 6 21 29 47 53 105 97 108
101 75 131 -31 28 -56 19 -127 -45 -37 -35 -72 -63 -79 -63 -6 0 -13 21 -16
46 -9 74 -47 101 -83 61z"/>
<path d="M7736 4014 c-9 -8 -16 -21 -16 -28 0 -13 110 -159 128 -170 5 -3 7
-37 4 -76 -5 -80 12 -120 51 -120 38 0 47 19 47 102 l0 77 65 73 c36 40 70 80
75 89 12 21 -10 63 -37 67 -24 4 -78 -40 -114 -93 -29 -42 -38 -43 -64 -7 -35
47 -92 102 -108 102 -9 0 -23 -7 -31 -16z"/>
<path d="M2258 3529 l-31 -30 5 -216 c4 -210 5 -217 27 -235 30 -24 66 -23 91
2 18 18 20 33 20 141 0 66 3 119 8 117 7 -3 70 -69 195 -206 74 -80 110 -92
146 -46 20 25 21 39 21 238 0 239 -4 256 -64 256 -58 0 -66 -20 -66 -161 l-1
-124 -66 75 c-129 144 -209 220 -232 220 -12 0 -36 -14 -53 -31z"/>
<path d="M2977 3530 l-27 -21 0 -218 c0 -274 -12 -256 173 -252 72 1 139 7
149 12 23 13 33 52 18 79 -16 30 -50 40 -141 40 -72 0 -79 2 -79 20 0 28 30
40 103 40 71 0 97 17 97 61 0 46 -14 54 -107 59 -74 4 -88 8 -91 23 -7 37 16
47 108 47 71 0 90 3 103 18 21 23 22 62 3 88 -13 17 -29 19 -148 22 -124 3
-135 2 -161 -18z"/>
<path d="M3431 3524 c-12 -15 -21 -35 -21 -44 0 -31 132 -400 152 -425 25 -32
67 -33 95 -2 12 12 31 59 43 105 12 45 26 82 31 82 5 0 16 -26 24 -57 31 -109
37 -123 58 -138 28 -20 60 -19 86 3 23 19 151 378 151 425 0 33 -40 77 -69 77
-30 0 -59 -45 -87 -137 -15 -46 -30 -85 -34 -88 -4 -2 -22 40 -39 95 -35 104
-53 130 -91 130 -38 0 -55 -25 -86 -125 -16 -52 -33 -93 -38 -92 -6 2 -23 42
-38 89 -16 47 -38 95 -49 106 -27 30 -63 28 -88 -4z"/>
<path d="M4232 3529 c-56 -28 -85 -70 -90 -133 -3 -45 0 -56 28 -93 26 -36 42
-46 97 -63 36 -11 72 -20 79 -20 20 0 30 -30 13 -41 -23 -15 -74 -10 -123 11
-53 24 -82 16 -92 -25 -15 -62 25 -105 118 -124 109 -24 223 37 235 126 12 92
-26 143 -130 174 -40 12 -79 28 -87 36 -13 13 -13 16 5 29 12 9 32 13 50 10
17 -2 48 -7 70 -11 49 -9 78 16 73 62 -2 23 -13 33 -57 56 -67 33 -129 35
-189 6z"/>
<path d="M4902 3527 c-21 -22 -22 -31 -22 -240 0 -204 1 -218 20 -237 28 -28
64 -25 89 6 17 21 21 41 21 95 l0 69 75 0 c62 0 79 4 95 20 27 27 25 56 -5 85
-21 22 -33 25 -95 25 l-71 0 3 33 3 32 108 5 c116 5 127 10 127 63 0 15 -9 36
-20 47 -18 18 -33 20 -163 20 -137 0 -144 -1 -165 -23z"/>
<path d="M5432 3532 c-26 -26 -174 -379 -180 -428 -4 -35 -1 -44 19 -58 13 -9
33 -16 45 -16 23 0 58 36 69 70 5 15 19 19 82 22 l75 3 19 -36 c20 -40 35 -49
79 -49 29 0 60 30 60 58 0 7 -24 70 -54 140 -29 70 -66 160 -81 201 -15 41
-36 82 -46 92 -24 24 -64 24 -87 1z m56 -237 c18 -39 15 -45 -19 -45 -26 0
-30 3 -24 18 4 9 10 25 12 35 7 24 18 21 31 -8z"/>
<path d="M5909 3535 c-53 -17 -110 -69 -140 -126 -84 -166 36 -374 216 -373
67 1 112 19 144 60 33 41 24 76 -26 103 -19 9 -30 8 -62 -9 -73 -37 -129 -18
-156 54 -21 55 -9 103 37 142 33 27 53 28 146 8 40 -8 72 16 72 56 0 70 -129
118 -231 85z"/>
<path d="M6222 3533 c-59 -50 -22 -123 63 -123 l45 0 0 -165 c0 -163 0 -166
25 -190 29 -30 58 -32 85 -5 18 18 20 33 20 190 l0 170 35 0 c71 0 121 51 96
99 -20 36 -45 41 -199 41 -128 0 -153 -3 -170 -17z"/>
<path d="M6827 3538 c-55 -12 -89 -32 -129 -76 -91 -100 -83 -269 16 -360 170
-157 434 -23 413 209 -14 153 -154 259 -300 227z m111 -148 c40 -24 66 -80 57
-121 -16 -72 -92 -115 -156 -89 -46 20 -69 55 -69 110 0 98 87 149 168 100z"/>
<path d="M7300 3543 c-8 -3 -23 -15 -32 -27 -15 -18 -18 -47 -18 -233 0 -200
1 -214 20 -233 23 -23 58 -26 86 -6 15 11 19 28 21 73 1 32 2 64 2 71 1 6 9
12 19 12 12 0 37 -27 67 -71 63 -93 82 -105 128 -85 53 22 56 48 10 113 -21
30 -42 60 -47 68 -7 9 -1 23 17 45 33 39 41 67 35 131 -9 94 -97 150 -232 148
-34 0 -68 -3 -76 -6z m174 -156 c16 -26 -26 -59 -68 -55 -28 3 -31 7 -34 41
l-3 38 47 -3 c32 -2 50 -9 58 -21z"/>
<path d="M7681 3524 c-11 -15 -21 -33 -21 -40 0 -7 31 -59 70 -116 l70 -103 0
-96 c0 -87 2 -97 23 -117 29 -27 61 -28 87 -2 17 17 20 33 20 116 0 106 1 110
76 209 71 94 79 116 53 149 -38 48 -76 33 -144 -59 -21 -27 -42 -50 -47 -50
-5 0 -33 29 -61 65 -62 76 -92 87 -126 44z"/>
<path d="M5077 2892 c-36 -39 -11 -102 39 -102 45 0 64 17 64 58 0 21 -5 43
-12 50 -18 18 -73 14 -91 -6z"/>
<path d="M3198 7638 c-17 -13 -21 -28 -19 -59 0 -9 21 -46 45 -81 83 -121 497
-778 546 -866 26 -47 58 -62 94 -43 29 16 84 100 106 162 9 27 19 51 22 54 3
3 27 -13 54 -35 53 -44 74 -49 99 -24 13 14 16 33 13 97 l-3 80 65 13 c96 20
112 29 108 62 -2 22 -17 35 -73 68 -255 150 -399 234 -615 359 -135 77 -276
160 -314 183 -73 44 -101 50 -128 30z m740 -538 c67 -40 122 -76 122 -79 0 -7
-167 -52 -191 -51 -9 0 -49 36 -89 80 -40 44 -77 77 -83 73 -5 -3 -7 -1 -4 4
4 6 -16 31 -43 56 -28 25 -50 51 -50 57 0 5 -6 9 -12 8 -7 -2 -12 2 -11 9 2 7
-6 17 -17 23 -14 7 -20 7 -20 0 0 -5 7 -10 16 -10 8 0 12 -5 9 -10 -4 -6 -1
-19 6 -28 12 -15 11 -15 -3 -2 -9 8 -38 47 -66 86 l-50 71 182 -107 c99 -58
236 -139 304 -180z m-295 29 c7 -25 3 -24 -17 6 -13 19 -13 23 -2 19 8 -3 16
-14 19 -25z m194 -321 c-3 -8 -6 -5 -6 6 -1 11 2 17 5 13 3 -3 4 -12 1 -19z"/>
<path d="M6745 7136 c-8 -19 -15 -38 -15 -41 0 -3 -9 -25 -20 -49 -17 -39 -25
-45 -83 -65 -35 -11 -68 -21 -74 -21 -6 0 -45 21 -88 47 l-77 47 -44 -49 c-24
-28 -53 -62 -64 -76 l-20 -27 55 -67 55 -66 -20 -39 c-25 -48 -41 -57 -124
-69 -36 -5 -70 -12 -76 -16 -6 -3 -10 -46 -10 -99 l0 -94 91 -13 90 -14 27
-47 27 -47 -54 -55 c-37 -37 -51 -58 -45 -68 6 -10 83 -107 100 -127 6 -7 86
31 122 57 l33 24 47 -23 c26 -13 48 -25 50 -26 2 -1 8 -34 13 -74 5 -40 12
-76 16 -80 5 -4 46 -9 92 -11 l84 -3 24 77 c21 70 26 77 53 83 27 6 38 1 83
-37 29 -25 58 -48 65 -52 8 -5 40 14 87 50 41 31 75 60 75 63 0 3 -16 31 -35
61 -40 62 -41 71 -18 106 16 25 19 26 107 23 l91 -4 22 90 c12 50 19 91 15 93
-4 1 -43 15 -87 30 -60 21 -81 32 -83 47 -2 11 -8 30 -15 43 -15 31 -4 48 64
95 30 21 55 42 57 46 1 4 -18 46 -43 94 l-46 86 -78 -28 -78 -27 -39 33 c-21
18 -51 37 -65 43 -24 10 -27 18 -33 87 -3 42 -8 78 -10 81 -3 2 -38 10 -78 17
-40 7 -81 16 -91 20 -13 6 -20 -1 -32 -29z m5 -191 c0 -8 -7 -15 -15 -15 -26
0 -108 -31 -148 -57 -31 -19 -41 -22 -48 -12 -12 20 -3 28 74 65 76 36 137 45
137 19z m187 -20 c60 -25 143 -93 143 -117 0 -18 -6 -15 -46 22 -25 23 -70 53
-100 67 -30 13 -54 29 -54 34 0 13 15 11 57 -6z m-467 -130 c0 -2 -13 -33 -29
-67 -17 -35 -32 -71 -35 -80 -6 -21 -36 -24 -36 -4 0 24 40 110 62 134 20 20
38 29 38 17z m415 -33 c106 -54 150 -168 114 -296 -14 -50 -81 -122 -127 -137
-105 -35 -221 -5 -281 72 -105 132 -57 318 97 376 50 18 147 11 197 -15z m289
-144 c10 -40 7 -80 -6 -76 -15 5 -24 98 -10 98 5 0 12 -10 16 -22z m-758 -185
c26 -81 27 -83 15 -83 -14 0 -61 93 -61 120 0 40 27 19 46 -37z m700 -108
c-23 -38 -66 -78 -66 -60 0 7 50 85 69 108 27 32 24 -1 -3 -48z"/>
<path d="M4483 7095 c-39 -17 -56 -60 -38 -102 21 -50 80 -59 120 -18 30 29
32 64 5 97 -25 32 -49 39 -87 23z"/>
<path d="M5712 6835 c-59 -50 -30 -135 46 -135 89 0 99 135 11 155 -19 5 -34
0 -57 -20z"/>
<path d="M3009 6761 c-32 -78 -34 -80 -88 -104 -31 -14 -66 -28 -79 -32 -30
-9 -45 -38 -29 -57 7 -8 36 -32 65 -52 70 -51 82 -70 82 -136 0 -56 19 -100
43 -100 7 0 43 20 80 45 l67 46 81 -22 c73 -20 81 -21 96 -7 14 15 14 22 0 85
-9 37 -19 77 -22 88 -4 15 8 41 39 87 71 103 63 118 -64 118 l-87 0 -55 60
c-75 83 -88 81 -129 -19z m113 -126 c14 -18 29 -25 54 -25 l35 0 -20 -29 c-25
-35 -25 -38 -6 -74 16 -31 19 -30 -43 -12 -14 4 -32 1 -47 -9 -33 -22 -35 -21
-35 19 0 28 -5 38 -25 47 -32 14 -32 24 0 32 16 4 30 19 39 41 18 42 22 43 48
10z"/>
<path d="M4215 6394 c-128 -40 -389 -117 -675 -199 -424 -122 -660 -194 -707
-217 -30 -15 -38 -44 -20 -71 9 -13 71 -49 151 -86 l136 -64 0 -61 c0 -136 86
-326 148 -326 16 0 272 216 910 768 178 154 212 188 212 210 0 33 -8 45 -37
61 -27 14 -23 14 -118 -15z m-316 -238 c-4 -4 -369 -199 -489 -261 -41 -21
-86 -45 -100 -52 -14 -7 -32 -13 -42 -13 -19 0 -178 70 -178 79 0 6 404 131
570 177 52 14 124 36 160 49 62 23 88 30 79 21z m-40 -96 c-24 -21 -50 -37
-57 -35 -7 3 -10 1 -7 -5 7 -12 -215 -201 -228 -193 -6 3 -7 1 -4 -4 4 -6 0
-16 -8 -23 -8 -7 -15 -10 -15 -7 0 3 -21 -15 -47 -40 -36 -33 -49 -41 -51 -29
-2 10 -15 16 -35 17 -26 0 -29 2 -12 8 11 5 23 7 26 5 4 -2 10 3 13 12 4 11
13 14 31 10 16 -4 25 -2 25 5 0 7 -12 10 -30 7 -16 -3 -30 -1 -30 4 0 5 -4 6
-10 3 -5 -3 -10 -4 -10 -2 0 2 44 31 97 63 53 32 153 96 221 142 105 71 151
98 171 101 2 1 -16 -17 -40 -39z m-504 -309 c3 -5 2 -12 -3 -15 -5 -3 -9 1 -9
9 0 17 3 19 12 6z m-25 -16 c0 -9 -6 -12 -16 -8 -13 5 -13 7 -2 14 17 11 18
11 18 -6z m-49 -18 c-6 -8 -8 -17 -4 -21 4 -4 0 -4 -10 0 -11 4 -17 1 -17 -7
0 -7 -3 -9 -7 -5 -4 4 3 16 17 26 30 23 37 25 21 7z m86 -9 c-3 -8 -6 -5 -6 6
-1 11 2 17 5 13 3 -3 4 -12 1 -19z m54 7 l8 20 0 -20 c0 -12 -31 -47 -82 -92
-45 -39 -83 -71 -84 -69 -1 1 -5 20 -8 42 -3 27 -2 33 4 19 5 -11 7 -23 4 -27
-7 -12 4 -9 19 5 7 7 30 23 51 36 20 12 34 27 31 33 -3 5 4 12 15 15 12 3 21
13 20 22 -2 27 3 37 9 16 l5 -20 8 20z m-122 -67 c-10 -6 -7 -7 9 -3 13 4 22
2 22 -5 0 -6 -4 -8 -10 -5 -5 3 -10 1 -10 -6 0 -9 -3 -9 -14 1 -16 13 -10 44
6 34 6 -4 5 -10 -3 -16z m46 12 c3 -6 -1 -7 -9 -4 -18 7 -21 14 -7 14 6 0 13
-4 16 -10z m-60 -39 c3 -5 1 -12 -5 -16 -5 -3 -10 1 -10 9 0 18 6 21 15 7z"/>
<path d="M3455 5810 c-8 -13 5 -13 25 0 13 8 13 10 -2 10 -9 0 -20 -4 -23 -10z"/>
<path d="M5862 6387 c-11 -12 -29 -41 -41 -64 -25 -51 -27 -52 -121 -83 -100
-33 -104 -52 -25 -123 l57 -51 -6 -71 c-4 -40 -4 -79 0 -88 10 -26 57 -21 124
13 l59 30 55 -26 c31 -14 68 -24 83 -22 l28 3 -3 86 -4 87 37 33 c108 99 96
136 -53 154 -51 7 -55 10 -95 65 -55 77 -69 85 -95 57z m56 -192 c12 -15 30
-25 47 -25 25 0 25 -1 11 -22 -9 -12 -16 -37 -16 -55 0 -37 0 -37 -33 -22 -19
9 -31 7 -56 -5 l-31 -17 0 35 c0 18 -7 39 -15 46 -22 18 -19 27 14 38 16 6 32
20 36 31 8 27 19 26 43 -4z"/>
<path d="M4550 6330 c-62 -62 -5 -163 77 -134 79 27 56 154 -27 154 -17 0 -39
-9 -50 -20z"/>
<path d="M7619 6197 c-14 -12 -42 -43 -63 -69 l-37 -48 -72 0 c-84 0 -122 -18
-111 -52 3 -12 26 -45 50 -75 24 -30 44 -57 44 -62 0 -4 -7 -30 -15 -57 -19
-63 -19 -108 1 -124 12 -11 28 -10 87 4 40 10 77 20 83 22 6 3 38 -14 71 -36
101 -67 125 -50 120 81 -2 71 -2 72 33 98 19 14 50 40 70 58 47 43 35 61 -65
94 l-78 26 -38 76 c-21 41 -42 78 -47 81 -4 2 -19 -5 -33 -17z m62 -236 l32
-11 -27 -21 c-19 -15 -26 -30 -26 -56 0 -30 -3 -34 -17 -28 -36 15 -61 17 -83
5 -28 -15 -32 -11 -20 30 8 26 6 39 -6 57 -18 28 -11 43 20 43 12 0 33 12 47
26 l24 26 12 -30 c8 -19 24 -34 44 -41z"/>
<path d="M4430 5995 c-20 -24 -15 -67 10 -87 30 -25 58 -20 84 15 19 26 19 30
5 55 -18 33 -77 43 -99 17z"/>
<path d="M4156 5926 c-33 -32 -33 -60 -1 -91 30 -30 54 -31 89 -4 45 35 25
100 -36 115 -21 4 -33 0 -52 -20z"/>
<path d="M6680 5760 c-11 -11 -20 -33 -20 -49 0 -32 17 -49 139 -141 l73 -55
-7 -64 c-4 -36 -10 -73 -14 -83 -7 -18 -8 -18 -33 1 -35 28 -62 26 -87 -5 -28
-36 -26 -68 7 -104 77 -87 212 -12 212 118 0 23 3 42 8 42 4 0 20 -11 37 -24
l29 -24 -21 -48 c-32 -72 -36 -91 -23 -129 24 -72 135 -134 188 -104 62 35 51
87 -26 121 -26 11 -48 22 -50 23 -7 6 22 65 31 65 12 0 19 -4 205 -113 127
-75 174 -86 193 -43 13 29 10 35 -145 296 -65 110 -133 211 -156 233 -35 33
-45 37 -90 37 -37 0 -55 -5 -70 -20 -41 -41 -15 -95 52 -109 34 -7 53 -28 133
-151 22 -34 47 -71 55 -83 15 -21 -180 124 -320 238 -201 164 -242 195 -260
195 -11 0 -29 -9 -40 -20z"/>
<path d="M6300 5690 c-23 -23 -26 -76 -7 -101 32 -42 108 -29 125 20 26 74
-63 136 -118 81z"/>
<path d="M3793 5600 c-45 -18 -55 -72 -22 -114 40 -50 122 -22 122 43 0 52
-53 90 -100 71z"/>
<path d="M6445 5455 c-39 -38 -28 -87 21 -99 63 -16 105 71 52 108 -31 22 -45
20 -73 -9z"/>
<path d="M2747 5381 c-65 -33 -102 -67 -132 -122 -37 -68 -41 -152 -10 -214
17 -34 25 -40 57 -43 51 -4 68 21 61 97 -7 69 12 113 59 137 67 35 139 15 179
-49 17 -26 19 -42 14 -92 -5 -52 -3 -63 14 -79 30 -27 71 -17 98 23 33 49 32
139 -3 209 -31 62 -98 124 -152 140 -60 18 -142 15 -185 -7z"/>
<path d="M3432 5293 c-15 -6 -42 -56 -42 -78 0 -26 55 -75 85 -75 36 0 75 41
75 80 0 56 -63 95 -118 73z"/>
<path d="M7725 5035 c-36 -35 -35 -96 1 -124 37 -29 70 -26 106 9 25 26 29 36
24 63 -7 39 -48 77 -82 77 -14 0 -36 -11 -49 -25z"/>
<path d="M7297 4942 c-23 -25 -21 -78 3 -102 43 -43 120 -11 120 50 0 17 -9
39 -20 50 -26 26 -81 26 -103 2z"/>
<path d="M7542 4580 c-52 -49 -29 -122 40 -128 29 -2 40 2 57 24 28 35 27 69
-4 99 -29 30 -64 32 -93 5z"/>
</g>
</svg>
